<svg xmlns="http://www.w3.org/2000/svg" version="1.1" xmlns:xlink="http://www.w3.org/1999/xlink" xmlns:svgjs="http://svgjs.dev/svgjs" width="1440" height="560" preserveAspectRatio="none" viewBox="0 0 1440 560"><g mask="url(&quot;#SvgjsMask1108&quot;)" fill="none"><rect width="1440" height="560" x="0" y="0" fill="url(&quot;#SvgjsLinearGradient1109&quot;)"></rect><path d="M108.09465583852501 332.5384948677787L131.5564588587441 184.40650051186287-16.575535497171728 160.9446974916438-40.03733851739081 309.07669184755963z" fill="rgba(28, 83, 142, 0.4)" class="triangle-float1"></path><path d="M323.07 478.53 a163.62 163.62 0 1 0 327.24 0 a163.62 163.62 0 1 0 -327.24 0z" fill="rgba(28, 83, 142, 0.4)" class="triangle-float1"></path><path d="M393.08 371.2 a145.8 145.8 0 1 0 291.6 0 a145.8 145.8 0 1 0 -291.6 0z" fill="rgba(28, 83, 142, 0.4)" class="triangle-float2"></path><path d="M1036.54 315.03 a96.62 96.62 0 1 0 193.24 0 a96.62 96.62 0 1 0 -193.24 0z" fill="rgba(28, 83, 142, 0.4)" class="triangle-float2"></path><path d="M306.89 112.16 a153.15 153.15 0 1 0 306.3 0 a153.15 153.15 0 1 0 -306.3 0z" fill="rgba(28, 83, 142, 0.4)" class="triangle-float1"></path><path d="M688.4792238623551 276.67689456466104L743.3587951778288 412.5086000487121 879.1905006618799 357.62902873323833 824.3109293464062 221.79732324918726z" fill="rgba(28, 83, 142, 0.4)" class="triangle-float2"></path><path d="M530.1465581341139 151.05136908273118L413.83822026306007 56.866734147301656 319.6535853276305 173.1750720183555 435.96192319868436 267.359706953785z" fill="rgba(28, 83, 142, 0.4)" class="triangle-float3"></path><path d="M897.04 151.98 a186.02 186.02 0 1 0 372.04 0 a186.02 186.02 0 1 0 -372.04 0z" fill="rgba(28, 83, 142, 0.4)" class="triangle-float1"></path><path d="M201.16 191.89 a98.35 98.35 0 1 0 196.7 0 a98.35 98.35 0 1 0 -196.7 0z" fill="rgba(28, 83, 142, 0.4)" class="triangle-float2"></path></g><defs><mask id="SvgjsMask1108"><rect width="1440" height="560" fill="#ffffff"></rect></mask><linearGradient x1="84.72%" y1="139.29%" x2="15.28%" y2="-39.29%" gradientUnits="userSpaceOnUse" id="SvgjsLinearGradient1109"><stop stop-color="#0e2a47" offset="0"></stop><stop stop-color="#00459e" offset="1"></stop></linearGradient></defs></svg>